HIERARCHY
ROOT Hips
{
	OFFSET 0.00000 0.00000 0.00000
	CHANNELS 6 Xposition Yposition Zposition Zrotation Yrotation Xrotation 
	JOINT LHipJoint
	{
		OFFSET 0 0 0
		CHANNELS 3 Zrotation Yrotation Xrotation
		JOINT LeftUpLeg
		{
			OFFSET 1.37959 -1.78713 0.86582
			CHANNELS 3 Zrotation Yrotation Xrotation
			JOINT LeftLeg
			{
				OFFSET 2.54611 -6.99539 0.00000
				CHANNELS 3 Zrotation Yrotation Xrotation
				JOINT LeftFoot
				{
					OFFSET 2.59951 -7.14211 0.00000
					CHANNELS 3 Zrotation Yrotation Xrotation
					JOINT LeftToeBase
					{
						OFFSET 0.18493 -0.50810 1.96120
						CHANNELS 3 Zrotation Yrotation Xrotation
						End Site
						{
							OFFSET 0.00000 -0.00000 1.02054
						}
					}
				}
			}
		}
	}
	JOINT RHipJoint
	{
		OFFSET 0 0 0
		CHANNELS 3 Zrotation Yrotation Xrotation
		JOINT RightUpLeg
		{
			OFFSET -1.33564 -1.78713 0.86582
			CHANNELS 3 Zrotation Yrotation Xrotation
			JOINT RightLeg
			{
				OFFSET -2.52705 -6.94302 0.00000
				CHANNELS 3 Zrotation Yrotation Xrotation
				JOINT RightFoot
				{
					OFFSET -2.55964 -7.03257 0.00000
					CHANNELS 3 Zrotation Yrotation Xrotation
					JOINT RightToeBase
					{
						OFFSET -0.25804 -0.70896 2.12109
						CHANNELS 3 Zrotation Yrotation Xrotation
						End Site
						{
							OFFSET -0.00000 -0.00000 1.11821
						}
					}
				}
			}
		}
	}
	JOINT LowerBack
	{
		OFFSET 0 0 0
		CHANNELS 3 Zrotation Yrotation Xrotation
		JOINT Spine
		{
			OFFSET -0.02031 2.24248 -0.18900
			CHANNELS 3 Zrotation Yrotation Xrotation
			JOINT Spine1
			{
				OFFSET 0.08342 2.24689 -0.03799
				CHANNELS 3 Zrotation Yrotation Xrotation
				JOINT Neck
				{
					OFFSET 0 0 0
					CHANNELS 3 Zrotation Yrotation Xrotation
					JOINT Neck1
					{
						OFFSET -0.11607 1.55844 0.24628
						CHANNELS 3 Zrotation Yrotation Xrotation
						JOINT Head
						{
							OFFSET 0.06877 1.60174 -0.17013
							CHANNELS 3 Zrotation Yrotation Xrotation
							End Site
							{
								OFFSET 0.03358 1.61266 -0.08543
							}
						}
					}
				}
				JOINT LeftShoulder
				{
					OFFSET 0 0 0
					CHANNELS 3 Zrotation Yrotation Xrotation
					JOINT LeftArm
					{
						OFFSET 3.47537 0.55866 -0.72348
						CHANNELS 3 Zrotation Yrotation Xrotation
						JOINT LeftForeArm
						{
							OFFSET 5.38154 -0.00000 0.00000
							CHANNELS 3 Zrotation Yrotation Xrotation
							JOINT LeftHand
							{
								OFFSET 3.33312 -0.00000 0.00000
								CHANNELS 3 Zrotation Yrotation Xrotation
								JOINT LeftFingerBase
								{
									OFFSET 0 0 0
									CHANNELS 3 Zrotation Yrotation Xrotation
									JOINT LeftHandIndex1
									{
										OFFSET 0.71079 -0.00000 0.00000
										CHANNELS 3 Zrotation Yrotation Xrotation
										End Site
										{
											OFFSET 0.57306 -0.00000 0.00000
										}
									}
								}
								JOINT LThumb
								{
									OFFSET 0 0 0
									CHANNELS 3 Zrotation Yrotation Xrotation
									End Site
									{
										OFFSET 0.58181 -0.00000 0.58181
									}
								}
							}
						}
					}
				}
				JOINT RightShoulder
				{
					OFFSET 0 0 0
					CHANNELS 3 Zrotation Yrotation Xrotation
					JOINT RightArm
					{
						OFFSET -3.27844 0.90739 -0.35708
						CHANNELS 3 Zrotation Yrotation Xrotation
						JOINT RightForeArm
						{
							OFFSET -5.16954 -0.00000 0.00000
							CHANNELS 3 Zrotation Yrotation Xrotation
							JOINT RightHand
							{
								OFFSET -3.38287 -0.00000 0.00000
								CHANNELS 3 Zrotation Yrotation Xrotation
								JOINT RightFingerBase
								{
									OFFSET 0 0 0
									CHANNELS 3 Zrotation Yrotation Xrotation
									JOINT RightHandIndex1
									{
										OFFSET -0.81797 -0.00000 0.00000
										CHANNELS 3 Zrotation Yrotation Xrotation
										End Site
										{
											OFFSET -0.65947 -0.00000 0.00000
										}
									}
								}
								JOINT RThumb
								{
									OFFSET 0 0 0
									CHANNELS 3 Zrotation Yrotation Xrotation
									End Site
									{
										OFFSET -0.66953 -0.00000 0.66953
									}
								}
							}
						}
					}
				}
			}
		}
	}
}
MOTION
Frames: 6
Frame Time: 0.028169
0.00 0.00 0.00 197.7860 -71.0280 -195.1560 0.0000 0.0000 0.0000 -0.2810 -4.3980 -19.4833 5.6137 14.0433 43.4110 1.2758 -10.5864 -20.4226 1.2316 -7.0379 -19.8278 0.0000 0.0000 0.0000 7.4127 7.0170 -13.6534 -2.7768 -10.3247 30.0348 -0.6099 -4.2307 -16.8985 -0.3160 3.6136 -9.9921 -3.1565 -2.4604 12.1697 1.4536 -3.7175 2.6681 3.8562 -1.8662 -3.7140 -20.5086 -17.7859 7.8531 25.0834 -27.2153 1.6513 8.9730 -14.0351 5.6393 -0.0000 0.0000 0.0000 -88.3898 -13.2636 43.3362 50.9013 -53.3526 -26.8956 -0.0000 0.0000 -2.4983 -10.8101 36.1174 -6.4216 -7.1250 0.0000 -0.0000 -49.7868 58.9002 -19.9439 -0.0000 0.0000 0.0000 84.9766 2.5349 71.2151 -64.6054 57.4172 -38.1983 0.0000 -0.0000 -6.8404 -1.1182 25.6348 -0.4838 7.1250 -0.0000 -0.0000 17.2105 -5.2783 16.3255
0.00 0.00 0.00 207.8080 -78.3942 -206.9180 0.0000 0.0000 0.0000 0.7358 3.4139 -31.0990 9.0820 16.8602 56.3734 -0.0309 -26.2903 -18.3806 2.7416 -10.2645 -29.8375 0.0000 0.0000 0.0000 10.3591 1.0000 -19.2234 -5.6752 -14.1061 43.6639 -1.1503 0.8192 -20.0234 -1.7477 8.3194 -23.6886 -1.6263 -2.6807 18.5854 1.3241 -3.9526 3.1067 3.2991 -1.9577 -6.8300 -21.0209 -18.8811 9.1279 24.7678 -28.0147 -1.8312 8.9787 -14.5376 4.5959 0.0000 0.0000 0.0000 -90.2117 -5.2920 37.1460 77.0395 -59.3557 -48.8002 -0.0000 0.0000 -16.2943 -25.2946 29.3831 -13.0545 -7.1250 0.0000 -0.0000 -54.8273 51.3176 -11.4629 0.0000 0.0000 0.0000 94.7698 14.5139 79.6625 -53.4157 54.2835 -28.9253 0.0000 -0.0000 -0.6686 6.2551 27.2007 2.8683 7.1250 -0.0000 -0.0000 21.3543 -4.1449 21.3232
0.00 0.00 0.00 226.9880 -82.8133 -224.6990 0.0000 0.0000 0.0000 1.8869 5.9978 -29.8284 8.2930 16.3306 53.6113 0.9691 -14.2569 -18.9096 2.5333 -9.8982 -28.6479 0.0000 0.0000 0.0000 2.9760 3.2493 -10.3947 -3.1630 -10.9544 32.1262 1.5668 -22.7963 -16.9774 -0.0076 -0.5615 1.5429 -0.0026 -2.7399 12.9456 2.7776 -3.6392 2.6989 3.5080 -1.8529 -4.2222 -18.2640 -20.8009 13.3578 25.3669 -29.7080 -8.9516 9.4183 -15.8243 1.9185 -0.0000 0.0000 0.0000 -88.9193 2.0221 28.2073 75.8787 -59.2329 -47.8021 -0.0000 0.0000 -0.5371 1.3909 39.2018 0.8792 -7.1250 0.0000 -0.0000 -42.4610 64.1943 -21.5765 -0.0000 0.0000 0.0000 90.2877 7.5836 69.7625 -52.7804 54.0571 -28.4102 0.0000 -0.0000 -0.0386 -0.9961 30.7573 -0.5094 7.1250 -0.0000 -0.0000 17.2337 -0.3969 17.9475
0.00 0.00 0.00 215.6200 -86.0869 -212.2570 0.0000 0.0000 0.0000 -3.3024 9.0921 -32.0083 7.7797 15.9548 51.7654 -2.6609 -27.4407 9.4818 0.1043 -2.0820 -5.7324 0.0000 0.0000 0.0000 6.4207 0.3110 -17.8794 -5.2684 -13.6798 41.9698 -0.4864 -5.0100 -15.9643 -0.1496 2.4923 -6.8683 -2.2362 -3.8857 11.8796 1.4901 -5.4430 2.0618 3.6270 -2.6928 -4.1199 -18.7731 -20.1453 11.9685 26.0810 -29.2262 -6.5933 9.4340 -15.4938 2.9195 -0.0000 0.0000 0.0000 -80.3722 7.4624 26.1438 71.0562 -58.5996 -43.6713 -0.0000 0.0000 -2.1921 -5.7789 34.6351 -3.2920 -7.1250 0.0000 -0.0000 -43.5755 59.0039 -16.8851 -0.0000 0.0000 0.0000 87.6233 1.9170 63.1471 -54.8075 54.7596 -30.0587 0.0000 -0.0000 -6.2491 -8.8858 22.0867 -3.3643 7.1250 -0.0000 -0.0000 12.5330 -8.0790 10.9188
0.00 0.00 0.00 185.2390 -69.0551 -186.3380 0.0000 0.0000 0.0000 -4.8956 -4.8216 -9.7667 4.5090 12.8086 38.6560 1.5771 -0.2499 -23.6861 0.8475 -5.8717 -16.4127 0.0000 0.0000 0.0000 2.2333 7.8010 -10.6609 -1.8525 -8.5519 24.4034 0.4047 -12.9363 -11.7064 -0.0454 1.3747 -3.7805 -2.2986 -5.6314 18.1778 1.0192 -7.9694 2.1187 4.2864 -3.8512 -7.3611 -18.2739 -17.2854 5.4275 22.0076 -25.3777 0.8956 7.9125 -12.9359 4.6223 0.0000 -0.0000 0.0000 -86.3054 5.9173 32.8196 51.3899 -53.5409 -27.2881 -0.0000 -0.0000 6.3945 1.7646 31.6434 0.9260 -7.1250 0.0000 -0.0000 -33.4506 58.3420 -11.7592 0.0000 -0.0000 0.0000 78.4989 -5.5966 29.6397 -122.8150 55.5119 -87.9904 0.0000 -0.0000 -4.5687 -21.3103 17.6923 -6.7609 7.1250 -0.0000 -0.0000 4.3860 -11.1214 3.4681
0.00 0.00 0.00 185.3560 -64.1123 -182.7450 0.0000 0.0000 0.0000 -4.2925 -0.2996 -10.2192 3.4906 11.4498 33.8124 1.4260 -0.1032 -22.5608 0.3649 -3.8801 -10.7396 0.0000 0.0000 0.0000 3.0982 7.5140 -13.0075 -1.3185 -7.2727 20.5257 0.3477 -13.8739 -14.9152 -0.0023 -0.3066 0.8424 -5.0763 -6.3734 11.3950 2.1889 -9.0702 1.3074 6.3543 -4.4541 -3.8136 -17.3078 -15.7358 4.2818 18.5831 -23.2240 4.3886 6.9468 -11.7465 4.8445 0.0000 -0.0000 0.0000 -85.1160 -8.4347 62.2720 62.9146 -57.0379 -36.7766 -0.0000 -0.0000 4.6063 -0.1467 27.7783 -0.0684 -7.1250 0.0000 -0.0000 -32.0743 54.7061 -8.2840 0.0000 -0.0000 0.0000 67.6421 7.5619 5.7870 -122.5431 55.5933 -87.7662 0.0000 -0.0000 -13.1467 -37.6334 18.7271 -13.9039 7.1250 -0.0000 -0.0000 -6.0172 -6.9116 -5.2793
